<svg width="125" height="150" viewBox="0 0 125 150" fill="none" xmlns="http://www.w3.org/2000/svg">
<g filter="url(#filter0_di_1830_2445)">
<path d="M100.009 77.6611L80.0426 72.3111C79.8948 72.2715 79.7615 72.1864 79.6531 72.0625C79.5448 71.9386 79.4643 71.7794 79.4182 71.5973C79.372 71.4153 79.3614 71.2155 79.3872 71.0139C79.4131 70.8122 79.4746 70.6141 79.567 70.4354L102.991 25.1088C103.242 24.6227 103.377 24.0686 103.378 23.5258C103.378 22.983 103.243 22.4795 102.992 22.0874C102.742 21.6954 102.388 21.4349 101.982 21.3434C101.576 21.2519 101.139 21.3341 100.733 21.5781L25.1703 67.0008C24.7694 67.2419 24.4192 67.6286 24.1688 68.1069C23.9184 68.5852 23.7803 69.1312 23.7738 69.6683C23.7674 70.2055 23.8929 70.7069 24.1329 71.1024C24.3728 71.4979 24.7151 71.7677 25.1119 71.874L45.0784 77.224C45.2261 77.2636 45.3594 77.3487 45.4678 77.4726C45.5762 77.5965 45.6567 77.7558 45.7028 77.9378C45.749 78.1198 45.7595 78.3196 45.7337 78.5213C45.7079 78.7229 45.6464 78.921 45.554 79.0997L22.1304 124.427C21.8792 124.913 21.7438 125.467 21.7434 126.01C21.7431 126.552 21.878 127.056 22.1287 127.448C22.3794 127.84 22.733 128.101 23.1389 128.192C23.5447 128.283 23.982 128.201 24.3879 127.957L99.9506 82.5343C100.352 82.2933 100.702 81.9065 100.952 81.4282C101.203 80.9499 101.341 80.404 101.347 79.8668C101.354 79.3297 101.228 78.8283 100.988 78.4328C100.748 78.0372 100.406 77.7674 100.009 77.6611Z" fill="url(#paint0_radial_1830_2445)"/>
<path d="M100.009 77.6611L80.0426 72.3111C79.8948 72.2715 79.7615 72.1864 79.6531 72.0625C79.5448 71.9386 79.4643 71.7794 79.4182 71.5973C79.372 71.4153 79.3614 71.2155 79.3872 71.0139C79.4131 70.8122 79.4746 70.6141 79.567 70.4354L102.991 25.1088C103.242 24.6227 103.377 24.0686 103.378 23.5258C103.378 22.983 103.243 22.4795 102.992 22.0874C102.742 21.6954 102.388 21.4349 101.982 21.3434C101.576 21.2519 101.139 21.3341 100.733 21.5781L25.1703 67.0008C24.7694 67.2419 24.4192 67.6286 24.1688 68.1069C23.9184 68.5852 23.7803 69.1312 23.7738 69.6683C23.7674 70.2055 23.8929 70.7069 24.1329 71.1024C24.3728 71.4979 24.7151 71.7677 25.1119 71.874L45.0784 77.224C45.2261 77.2636 45.3594 77.3487 45.4678 77.4726C45.5762 77.5965 45.6567 77.7558 45.7028 77.9378C45.749 78.1198 45.7595 78.3196 45.7337 78.5213C45.7079 78.7229 45.6464 78.921 45.554 79.0997L22.1304 124.427C21.8792 124.913 21.7438 125.467 21.7434 126.01C21.7431 126.552 21.878 127.056 22.1287 127.448C22.3794 127.84 22.733 128.101 23.1389 128.192C23.5447 128.283 23.982 128.201 24.3879 127.957L99.9506 82.5343C100.352 82.2933 100.702 81.9065 100.952 81.4282C101.203 80.9499 101.341 80.404 101.347 79.8668C101.354 79.3297 101.228 78.8283 100.988 78.4328C100.748 78.0372 100.406 77.7674 100.009 77.6611Z" fill="url(#paint1_radial_1830_2445)"/>
</g>
<defs>
<filter id="filter0_di_1830_2445" x="0.872187" y="0.437128" width="123.377" height="148.661" filterUnits="userSpaceOnUse" color-interpolation-filters="sRGB">
<feFlood flood-opacity="0" result="BackgroundImageFix"/>
<feColorMatrix in="SourceAlpha" type="matrix" values="0 0 0 0 0 0 0 0 0 0 0 0 0 0 0 0 0 0 127 0" result="hardAlpha"/>
<feOffset/>
<feGaussianBlur stdDeviation="10.435"/>
<feComposite in2="hardAlpha" operator="out"/>
<feColorMatrix type="matrix" values="0 0 0 0 1 0 0 0 0 1 0 0 0 0 1 0 0 0 0.22 0"/>
<feBlend mode="normal" in2="BackgroundImageFix" result="effect1_dropShadow_1830_2445"/>
<feBlend mode="normal" in="SourceGraphic" in2="effect1_dropShadow_1830_2445" result="shape"/>
<feColorMatrix in="SourceAlpha" type="matrix" values="0 0 0 0 0 0 0 0 0 0 0 0 0 0 0 0 0 0 127 0" result="hardAlpha"/>
<feOffset dx="8.62664" dy="-3.23499"/>
<feGaussianBlur stdDeviation="6.46998"/>
<feComposite in2="hardAlpha" operator="arithmetic" k2="-1" k3="1"/>
<feColorMatrix type="matrix" values="0 0 0 0 0.929167 0 0 0 0 0.669 0 0 0 0 0 0 0 0 0.4 0"/>
<feBlend mode="multiply" in2="shape" result="effect2_innerShadow_1830_2445"/>
</filter>
<radialGradient id="paint0_radial_1830_2445" cx="0" cy="0" r="1" gradientUnits="userSpaceOnUse" gradientTransform="translate(144.18 -18.0602) rotate(132.011) scale(197.656 212.109)">
<stop stop-color="#8C48FF"/>
<stop offset="0.557394" stop-color="#F13B76"/>
<stop offset="0.895833" stop-color="#FFB152"/>
</radialGradient>
<radialGradient id="paint1_radial_1830_2445" cx="0" cy="0" r="1" gradientUnits="userSpaceOnUse" gradientTransform="translate(52.9688 -17.7922) rotate(92.0169) scale(238.361 141.386)">
<stop offset="0.100809" stop-color="#DEBCFF"/>
<stop offset="0.395833" stop-color="#FFD5FB" stop-opacity="0.243067"/>
<stop offset="0.552499" stop-color="#FAF5FF" stop-opacity="0"/>
</radialGradient>
</defs>
</svg>
